<svg aria-hidden="true" style="position: absolute; width: 0; height: 0; overflow: hidden;" version="1.1" xmlns="http://www.w3.org/2000/svg" xmlns:xlink="http://www.w3.org/1999/xlink">
<defs>
<symbol id="icon-burger" viewBox="0 0 32 32">
<path fill="#e5e5e5" style="fill: var(--color1, #e5e5e5)" d="M30.682 4.5h-29.364c-0.728 0-1.318 0.336-1.318 0.75s0.59 0.75 1.318 0.75h29.364c0.728 0 1.318-0.336 1.318-0.75s-0.59-0.75-1.318-0.75z"></path>
<path fill="#e5e5e5" style="fill: var(--color1, #e5e5e5)" d="M30.682 15.766h-29.364c-0.728 0-1.318 0.336-1.318 0.75s0.59 0.75 1.318 0.75h29.364c0.728 0 1.318-0.336 1.318-0.75s-0.59-0.75-1.318-0.75z"></path>
<path fill="#e5e5e5" style="fill: var(--color1, #e5e5e5)" d="M30.682 27.035h-29.364c-0.728 0-1.318 0.336-1.318 0.75s0.59 0.75 1.318 0.75h29.364c0.728 0 1.318-0.336 1.318-0.75s-0.59-0.75-1.318-0.75z"></path>
</symbol>
<symbol id="icon-calendar" viewBox="0 0 32 32">
<path fill="#1e2027" style="fill: var(--color1, #1e2027); stroke: var(--color2, #f53)" stroke="#f53" stroke-linejoin="miter" stroke-linecap="butt" stroke-miterlimit="4" stroke-width="0.5926" d="M27.556 0.222h-23.111c-2.332 0-4.222 1.89-4.222 4.222v23.111c0 2.332 1.89 4.222 4.222 4.222h23.111c2.332 0 4.222-1.89 4.222-4.222v-23.111c0-2.332-1.89-4.222-4.222-4.222z"></path>
<path fill="#f53" style="fill: var(--color2, #f53)" d="M23.415 11.123c-0.105-0.506-0.349-0.96-0.698-1.309-0.105-0.105-0.227-0.209-0.366-0.297l-0.017-0.017c-0.017-0.017-0.035-0.017-0.052-0.035-0.052-0.035-0.105-0.070-0.157-0.087h-0.017c-0.366-0.192-0.768-0.297-1.221-0.297h-1.082v-0.75c0-0.174-0.14-0.332-0.332-0.332-0.174 0-0.331 0.14-0.331 0.332v0.715h-6.264v-0.715c0-0.174-0.157-0.332-0.332-0.332s-0.332 0.14-0.332 0.332v0.715h-1.082c-0.332 0-0.663 0.070-0.96 0.192-0.332 0.14-0.628 0.332-0.872 0.576-0.14 0.14-0.262 0.297-0.366 0.454-0.105 0.174-0.192 0.349-0.262 0.541-0.035 0.105-0.070 0.209-0.087 0.314-0.035 0.174-0.052 0.349-0.052 0.523v9.788c0 0.715 0.297 1.361 0.75 1.815 0.471 0.471 1.117 0.75 1.815 0.75h9.806c0.715 0 1.361-0.297 1.815-0.75 0.471-0.471 0.75-1.117 0.75-1.815v-9.788c0-0.174-0.017-0.349-0.052-0.523zM9.213 11.629c0-0.14 0.017-0.262 0.035-0.384s0.070-0.244 0.105-0.366c0.070-0.157 0.157-0.297 0.244-0.419 0.052-0.070 0.105-0.122 0.157-0.192 0.105-0.105 0.227-0.192 0.349-0.279 0.297-0.174 0.628-0.279 0.995-0.279h1.082v0.715c0 0.174 0.14 0.332 0.332 0.332 0.174 0 0.332-0.14 0.332-0.332v-0.715h6.351v0.715c0 0.174 0.14 0.332 0.331 0.332 0.174 0 0.331-0.14 0.331-0.332v-0.715h1.082c0.366 0 0.715 0.105 0.995 0.279 0.122 0.087 0.244 0.174 0.349 0.279 0.262 0.262 0.454 0.593 0.523 0.977 0.017 0.122 0.035 0.262 0.035 0.384v1.431h-13.627v-1.431zM22.857 21.418c0 0.541-0.209 1.029-0.558 1.378s-0.837 0.558-1.361 0.558h-9.806c-0.523 0-1.012-0.209-1.361-0.558s-0.558-0.837-0.558-1.361v-7.73h13.645v7.712z"></path>
</symbol>
<symbol id="icon-level" viewBox="0 0 32 32">
<path fill="#1e2027" style="fill: var(--color1, #1e2027); stroke: var(--color2, #f53)" stroke="#f53" stroke-linejoin="miter" stroke-linecap="butt" stroke-miterlimit="4" stroke-width="0.5926" d="M27.556 0.222h-23.111c-2.332 0-4.222 1.89-4.222 4.222v23.111c0 2.332 1.89 4.222 4.222 4.222h23.111c2.332 0 4.222-1.89 4.222-4.222v-23.111c0-2.332-1.89-4.222-4.222-4.222z"></path>
<path fill="#f53" style="fill: var(--color2, #f53)" d="M10.303 15.966c-1.046 0-1.903 0.765-1.903 1.7v3.4c0 0.935 0.856 1.7 1.903 1.7s1.903-0.765 1.903-1.7v-3.4c0-0.935-0.856-1.7-1.903-1.7zM11.571 21.066c0 0.623-0.571 1.133-1.268 1.133s-1.268-0.51-1.268-1.133v-3.4c0-0.623 0.571-1.133 1.268-1.133s1.268 0.51 1.268 1.133v3.4z"></path>
<path fill="#f53" style="fill: var(--color2, #f53)" d="M16 12.582c-1.046 0-1.903 0.765-1.903 1.7v6.8c0 0.935 0.856 1.7 1.903 1.7s1.903-0.765 1.903-1.7v-6.8c0-0.935-0.856-1.7-1.903-1.7zM17.268 21.082c0 0.623-0.571 1.133-1.268 1.133s-1.268-0.51-1.268-1.133v-6.8c0-0.623 0.571-1.133 1.268-1.133s1.268 0.51 1.268 1.133v6.8z"></path>
<path fill="#f53" style="fill: var(--color2, #f53)" d="M21.698 9.2c-1.046 0-1.903 0.765-1.903 1.7v10.2c0 0.935 0.856 1.7 1.903 1.7s1.903-0.765 1.903-1.7v-10.2c0-0.935-0.856-1.7-1.903-1.7zM22.966 21.1c0 0.623-0.571 1.133-1.268 1.133s-1.268-0.51-1.268-1.133v-10.2c0-0.623 0.571-1.133 1.268-1.133s1.268 0.51 1.268 1.133v10.2z"></path>
</symbol>
<symbol id="icon-expert" viewBox="0 0 32 32">
<path fill="#1e2027" style="fill: var(--color1, #1e2027); stroke: var(--color2, #f53)" stroke="#f53" stroke-linejoin="miter" stroke-linecap="butt" stroke-miterlimit="4" stroke-width="0.5926" d="M27.556 0.222h-23.111c-2.332 0-4.222 1.89-4.222 4.222v23.111c0 2.332 1.89 4.222 4.222 4.222h23.111c2.332 0 4.222-1.89 4.222-4.222v-23.111c0-2.332-1.89-4.222-4.222-4.222z"></path>
<path fill="#f53" style="fill: var(--color2, #f53)" d="M10.771 25.435c0.331-1.917 0.446-3.893 0.088-5.815-0.158-0.849-0.403-1.727-0.843-2.479-0.034-0.057-0.071-0.113-0.106-0.169-0.169-0.27-0.323-0.548-0.454-0.839-0.123-0.272-0.184-0.58-0.316-0.845s-0.52-0.032-0.391 0.229v0.001c0.118 0.236 0.473 0.068 0.414-0.174-0.565-2.341-0.402-4.898 1.474-6.62 1.644-1.509 4.088-2.025 6.262-1.817 1.803 0.172 3.417 1.098 4.267 2.729 0.523 1.004 0.73 2.148 0.775 3.27 0.014 0.373-0.098 0.873 0.063 1.213 0.105 0.221 0.234 0.434 0.35 0.649 0.419 0.778 0.839 1.555 1.257 2.334 0.097 0.18 0.272 0.399 0.323 0.599 0.141 0.551-1.421 0.822-1.773 0.897-0.097 0.020-0.166 0.123-0.166 0.218 0 0.779 0.010 1.558 0 2.338-0.009 0.686-0.437 0.984-1.079 1.055-0.794 0.086-1.592 0.112-2.39 0.12-0.126 0.002-0.221 0.103-0.226 0.226-0.037 0.94-0.075 1.88-0.112 2.82-0.011 0.291 0.441 0.29 0.453 0 0.037-0.94 0.075-1.88 0.112-2.82l-0.226 0.226c0.861-0.008 1.724-0.037 2.578-0.142 0.752-0.092 1.312-0.579 1.343-1.368s0-1.638 0-2.455l-0.166 0.218c0.72-0.153 2.562-0.506 2.010-1.625-0.321-0.65-0.69-1.281-1.034-1.92l-0.608-1.128c-0.077-0.143-0.265-0.369-0.287-0.533-0.007-0.052 0.041-0.281 0.041-0.385 0.001-0.198-0.003-0.397-0.011-0.594-0.015-0.335-0.045-0.668-0.091-1-0.082-0.597-0.218-1.187-0.434-1.75-0.721-1.878-2.28-3.169-4.254-3.544-2.236-0.424-4.849 0.020-6.706 1.371-1.042 0.759-1.832 1.808-2.211 3.045-0.453 1.479-0.325 3.013 0.032 4.494l0.413-0.174v-0.001c-0.131-0.26-0.522-0.032-0.391 0.229 0.103 0.205 0.151 0.459 0.241 0.674 0.107 0.253 0.228 0.5 0.364 0.738 0.073 0.127 0.154 0.25 0.231 0.375 0.124 0.204 0.229 0.419 0.321 0.638 0.484 1.157 0.672 2.435 0.713 3.681s-0.074 2.473-0.284 3.692c-0.049 0.285 0.387 0.407 0.437 0.121l-0.002-0.002z"></path>
<path fill="#f53" style="fill: var(--color2, #f53)" d="M20.139 14.376c-0.032-0.603-0.483-1.112-1.112-1.112s-1.112 0.508-1.112 1.112c0 0.604 0.478 1.084 1.064 1.109 0.647 0.028 1.126-0.487 1.16-1.109 0.016-0.291-0.437-0.29-0.453 0-0.045 0.844-1.319 0.852-1.319 0s1.273-0.845 1.319 0c0.016 0.29 0.468 0.291 0.453 0z"></path>
<path fill="#f53" style="fill: var(--color2, #f53)" d="M18.864 10.457c-0.032-0.603-0.483-1.112-1.112-1.112s-1.112 0.508-1.112 1.112c0 0.604 0.478 1.084 1.064 1.109 0.647 0.028 1.126-0.487 1.16-1.109 0.016-0.291-0.437-0.29-0.453 0-0.045 0.844-1.319 0.852-1.319 0s1.273-0.845 1.319 0c0.016 0.29 0.468 0.291 0.453 0z"></path>
<path fill="#f53" style="fill: var(--color2, #f53)" d="M13.993 15.504c-0.032-0.588-0.455-1.081-1.064-1.109s-1.106 0.429-1.155 1.012c-0.049 0.583 0.373 1.112 0.95 1.195 0.688 0.099 1.227-0.438 1.268-1.098 0.018-0.291-0.434-0.29-0.453 0-0.058 0.94-1.49 0.771-1.306-0.13 0.158-0.771 1.265-0.627 1.306 0.13 0.016 0.29 0.468 0.291 0.453 0h0.001z"></path>
<path fill="#f53" style="fill: var(--color2, #f53)" d="M14.341 24.189v-7.071c0-0.46-0.425-0.775-0.71-1.113-0.188-0.223-0.507 0.099-0.32 0.32s0.362 0.488 0.576 0.683c0.143 0.131 0.005-0.061 0-0.055-0.016 0.022 0 0.113 0 0.14v7.096c0 0.291 0.453 0.292 0.453 0l0.001-0.001z"></path>
<path fill="#f53" style="fill: var(--color2, #f53)" d="M15.791 22.114v-8.73c0-0.060 0.048-0.447 0-0.488-0.008-0.007-0.129 0.143-0.041 0.121 0.047-0.012 0.127-0.132 0.16-0.166l0.539-0.56c0.31-0.322 0.62-0.645 0.93-0.967 0.202-0.21-0.118-0.53-0.32-0.32l-0.775 0.806c-0.277 0.287-0.643 0.576-0.87 0.905-0.094 0.136-0.075 0.257-0.075 0.416v8.984c0 0.291 0.453 0.292 0.453 0v-0.001z"></path>
<path fill="#f53" style="fill: var(--color2, #f53)" d="M17.094 19.728v-4.053l-0.112 0.195c0.468-0.281 0.935-0.561 1.402-0.842 0.25-0.149 0.022-0.541-0.229-0.391-0.451 0.271-0.945 0.511-1.37 0.822-0.25 0.183-0.145 0.674-0.145 0.95v3.318c0 0.291 0.453 0.292 0.453 0h0.001z"></path>
</symbol>
<symbol id="icon-lesson" viewBox="0 0 32 32">
<path fill="#1e2027" style="fill: var(--color1, #1e2027); stroke: var(--color2, #f53)" stroke="#f53" stroke-linejoin="miter" stroke-linecap="butt" stroke-miterlimit="4" stroke-width="0.5926" d="M27.556 0.222h-23.111c-2.332 0-4.222 1.89-4.222 4.222v23.111c0 2.332 1.89 4.222 4.222 4.222h23.111c2.332 0 4.222-1.89 4.222-4.222v-23.111c0-2.332-1.89-4.222-4.222-4.222z"></path>
<path fill="#f53" style="fill: var(--color2, #f53)" d="M23.283 9.6h-14.566c-0.837 0-1.517 0.644-1.517 1.435v10.331c0 0.791 0.681 1.435 1.517 1.435h14.566c0.837 0 1.517-0.644 1.517-1.435v-10.331c0-0.791-0.681-1.435-1.517-1.435zM24.194 21.365c0 0.475-0.408 0.861-0.91 0.861h-14.566c-0.502 0-0.91-0.386-0.91-0.861v-10.331c0-0.475 0.408-0.861 0.91-0.861h14.566c0.502 0 0.91 0.386 0.91 0.861v10.331z"></path>
<path fill="#f53" style="fill: var(--color2, #f53)" d="M14.655 18.18c0.042 0.019 0.087 0.028 0.131 0.028 0.068 0 0.135-0.021 0.19-0.063l3.035-2.296c0.072-0.054 0.114-0.137 0.114-0.224s-0.042-0.17-0.114-0.224l-3.034-2.296c-0.091-0.069-0.216-0.082-0.321-0.035s-0.172 0.148-0.172 0.259v4.591c0 0.11 0.067 0.211 0.172 0.259zM15.090 13.927l2.245 1.699-2.245 1.699v-3.397z"></path>
<path fill="#f53" style="fill: var(--color2, #f53)" d="M22.675 19.93h-10.044c-0.141-0.654-0.754-1.148-1.487-1.148s-1.346 0.494-1.487 1.148h-0.941c-0.168 0-0.303 0.128-0.303 0.287s0.136 0.287 0.303 0.287h0.941c0.141 0.654 0.754 1.148 1.487 1.148s1.346-0.494 1.487-1.148h10.044c0.168 0 0.303-0.128 0.303-0.287s-0.136-0.287-0.303-0.287zM11.144 21.078c-0.502 0-0.91-0.386-0.91-0.861s0.408-0.861 0.91-0.861c0.502 0 0.91 0.386 0.91 0.861s-0.408 0.861-0.91 0.861z"></path>
</symbol>
<symbol id="icon-second" viewBox="0 0 38 32">
<path fill="none" stroke="#f53" style="stroke: var(--color1, #f53)" stroke-linejoin="round" stroke-linecap="round" stroke-miterlimit="4" stroke-width="0.4726" d="M20.49 14.559h-1.256c-0.277 0-0.502 0.177-0.502 0.397v2.143"></path>
<path fill="none" stroke="#f53" style="stroke: var(--color1, #f53)" stroke-linejoin="round" stroke-linecap="round" stroke-miterlimit="4" stroke-width="0.4726" d="M13.456 13.063h1.862c0.287 0 0.522 0.211 0.522 0.472v8.755h-2.905v-8.755c0-0.26 0.233-0.472 0.522-0.472h-0.001z"></path>
<path fill="none" stroke="#f53" style="stroke: var(--color1, #f53)" stroke-linejoin="round" stroke-linecap="round" stroke-miterlimit="4" stroke-width="0.4726" d="M27.555 13.064v-1.146c0-0.22-0.225-0.397-0.502-0.397h-1.901c-0.277 0-0.502 0.177-0.502 0.397v1.146"></path>
<path fill="none" stroke="#f53" style="stroke: var(--color1, #f53)" stroke-linejoin="round" stroke-linecap="round" stroke-miterlimit="4" stroke-width="0.4726" d="M7.536 14.559h1.987c0.287 0 0.522 0.211 0.522 0.472v7.26h-3.029v-7.26c0-0.26 0.233-0.472 0.522-0.472h-0.001z"></path>
<path fill="none" stroke="#f53" style="stroke: var(--color1, #f53)" stroke-linejoin="round" stroke-linecap="round" stroke-miterlimit="4" stroke-width="0.4726" d="M16.47 22.29h-12.208"></path>
<path fill="none" stroke="#f53" style="stroke: var(--color1, #f53)" stroke-linejoin="round" stroke-linecap="round" stroke-miterlimit="4" stroke-width="0.4726" d="M26.27 25.391c2.528 0 4.578-1.856 4.578-4.145s-2.050-4.146-4.578-4.146c-2.529 0-4.578 1.856-4.578 4.146s2.050 4.145 4.578 4.145z"></path>
<path fill="none" stroke="#f53" style="stroke: var(--color1, #f53)" stroke-linejoin="round" stroke-linecap="round" stroke-miterlimit="4" stroke-width="0.4726" d="M26.217 27.588c3.855 0 6.98-2.83 6.98-6.32s-3.125-6.32-6.98-6.32c-3.855 0-6.98 2.83-6.98 6.32s3.125 6.32 6.98 6.32z"></path>
<path fill="none" stroke="#f53" style="stroke: var(--color1, #f53)" stroke-linejoin="round" stroke-linecap="round" stroke-miterlimit="4" stroke-width="0.4726" d="M32.248 24.595l4.625 4.177"></path>
<path fill="none" stroke="#f53" style="stroke: var(--color1, #f53)" stroke-linejoin="round" stroke-linecap="round" stroke-miterlimit="4" stroke-width="0.4726" d="M35.163 31.508l-5.145-4.664"></path>
<path fill="none" stroke="#f53" style="stroke: var(--color1, #f53)" stroke-linejoin="round" stroke-linecap="round" stroke-miterlimit="4" stroke-width="0.4726" d="M20.641 9.187l3.826-1.468"></path>
<path fill="none" stroke="#f53" style="stroke: var(--color1, #f53)" stroke-linejoin="round" stroke-linecap="round" stroke-miterlimit="4" stroke-width="0.4726" d="M15.441 8.332l3.040 0.892"></path>
<path fill="none" stroke="#f53" style="stroke: var(--color1, #f53)" stroke-linejoin="round" stroke-linecap="round" stroke-miterlimit="4" stroke-width="0.4726" d="M9.453 9.192l3.904-0.905"></path>
<path fill="none" stroke="#f53" style="stroke: var(--color1, #f53)" stroke-linejoin="round" stroke-linecap="round" stroke-miterlimit="4" stroke-width="0.4726" d="M8.405 10.624c0.601 0 1.088-0.442 1.088-0.988s-0.487-0.988-1.088-0.988c-0.601 0-1.088 0.442-1.088 0.988s0.487 0.988 1.088 0.988z"></path>
<path fill="none" stroke="#f53" style="stroke: var(--color1, #f53)" stroke-linejoin="round" stroke-linecap="round" stroke-miterlimit="4" stroke-width="0.4726" d="M14.395 8.983c0.601 0 1.088-0.442 1.088-0.988s-0.487-0.988-1.088-0.988c-0.601 0-1.088 0.442-1.088 0.988s0.487 0.988 1.088 0.988z"></path>
<path fill="none" stroke="#f53" style="stroke: var(--color1, #f53)" stroke-linejoin="round" stroke-linecap="round" stroke-miterlimit="4" stroke-width="0.4726" d="M19.598 10.624c0.601 0 1.088-0.442 1.088-0.988s-0.487-0.988-1.088-0.988c-0.601 0-1.088 0.442-1.088 0.988s0.487 0.988 1.088 0.988z"></path>
<path fill="none" stroke="#f53" style="stroke: var(--color1, #f53)" stroke-linejoin="round" stroke-linecap="round" stroke-miterlimit="4" stroke-width="0.4726" d="M26.531 7.266c0 0.546-0.487 0.989-1.088 0.989s-1.088-0.442-1.088-0.989c0-0.546 0.487-0.988 1.088-0.988s1.088 0.442 1.088 0.988z"></path>
<path fill="none" stroke="#f53" style="stroke: var(--color1, #f53)" stroke-linejoin="round" stroke-linecap="round" stroke-miterlimit="4" stroke-width="0.4726" d="M24.449 19.73v1.958"></path>
<path fill="none" stroke="#f53" style="stroke: var(--color1, #f53)" stroke-linejoin="round" stroke-linecap="round" stroke-miterlimit="4" stroke-width="0.4726" d="M28.358 19.907v1.779"></path>
<path fill="none" stroke="#f53" style="stroke: var(--color1, #f53)" stroke-linejoin="round" stroke-linecap="round" stroke-miterlimit="4" stroke-width="0.4726" d="M24.063 22.294h4.81"></path>
<path fill="none" stroke="#f53" style="stroke: var(--color1, #f53)" stroke-linejoin="round" stroke-linecap="round" stroke-miterlimit="4" stroke-width="0.4726" d="M17.922 24.622h-17.295v-19.95"></path>
<path fill="none" stroke="#f53" style="stroke: var(--color1, #f53)" stroke-linejoin="round" stroke-linecap="round" stroke-miterlimit="4" stroke-width="0.4726" d="M33.446 4.672v11.42"></path>
<path fill="none" stroke="#f53" style="stroke: var(--color1, #f53)" stroke-linejoin="round" stroke-linecap="round" stroke-miterlimit="4" stroke-width="0.4726" d="M23.092 4.672h10.34"></path>
<path fill="none" stroke="#f53" style="stroke: var(--color1, #f53)" stroke-linejoin="round" stroke-linecap="round" stroke-miterlimit="4" stroke-width="0.4726" d="M23.092 4.673h-22.465v-4.13h32.82v4.13"></path>
<path fill="none" stroke="#f53" style="stroke: var(--color1, #f53)" stroke-linejoin="round" stroke-linecap="round" stroke-miterlimit="4" stroke-width="0.4726" d="M0.628 4.672h-0.029"></path>
<path fill="none" stroke="#f53" style="stroke: var(--color1, #f53)" stroke-linejoin="round" stroke-linecap="round" stroke-miterlimit="4" stroke-width="0.4726" d="M2.451 2.586h0.355"></path>
<path fill="#f53" style="fill: var(--color1, #f53)" d="M31.612 2.867c0.172 0 0.311-0.126 0.311-0.282s-0.139-0.282-0.311-0.282c-0.172 0-0.311 0.126-0.311 0.282s0.139 0.282 0.311 0.282z"></path>
<path fill="#f53" style="fill: var(--color1, #f53)" d="M29.832 2.867c0.172 0 0.311-0.126 0.311-0.282s-0.139-0.282-0.311-0.282c-0.172 0-0.311 0.126-0.311 0.282s0.139 0.282 0.311 0.282z"></path>
<path fill="#f53" style="fill: var(--color1, #f53)" d="M28.056 2.867c0.172 0 0.311-0.126 0.311-0.282s-0.139-0.282-0.311-0.282c-0.172 0-0.311 0.126-0.311 0.282s0.139 0.282 0.311 0.282z"></path>
</symbol>
<symbol id="icon-first" viewBox="0 0 36 32">
<path fill="none" stroke="#f53" style="stroke: var(--color1, #f53)" stroke-linejoin="round" stroke-linecap="round" stroke-miterlimit="4" stroke-width="0.4171" d="M19.299 23.055h-18.715v-18.53"></path>
<path fill="none" stroke="#f53" style="stroke: var(--color1, #f53)" stroke-linejoin="round" stroke-linecap="round" stroke-miterlimit="4" stroke-width="0.4171" d="M30.407 4.525v10.607"></path>
<path fill="none" stroke="#f53" style="stroke: var(--color1, #f53)" stroke-linejoin="round" stroke-linecap="round" stroke-miterlimit="4" stroke-width="0.4171" d="M20.997 4.525h9.396"></path>
<path fill="none" stroke="#f53" style="stroke: var(--color1, #f53)" stroke-linejoin="round" stroke-linecap="round" stroke-miterlimit="4" stroke-width="0.4171" d="M20.998 4.524h-20.415v-3.836h29.824v3.836"></path>
<path fill="none" stroke="#f53" style="stroke: var(--color1, #f53)" stroke-linejoin="round" stroke-linecap="round" stroke-miterlimit="4" stroke-width="0.4171" d="M0.583 4.525h-0.026"></path>
<path fill="none" stroke="#f53" style="stroke: var(--color1, #f53)" stroke-linejoin="round" stroke-linecap="round" stroke-miterlimit="4" stroke-width="0.4171" d="M2.241 2.585h0.322"></path>
<path fill="#f53" style="fill: var(--color1, #f53)" d="M28.74 2.879c0.156 0 0.282-0.132 0.282-0.294s-0.126-0.294-0.282-0.294c-0.156 0-0.282 0.132-0.282 0.294s0.126 0.294 0.282 0.294z"></path>
<path fill="#f53" style="fill: var(--color1, #f53)" d="M27.122 2.879c0.156 0 0.282-0.132 0.282-0.294s-0.126-0.294-0.282-0.294c-0.156 0-0.282 0.132-0.282 0.294s0.126 0.294 0.282 0.294z"></path>
<path fill="#f53" style="fill: var(--color1, #f53)" d="M25.506 2.879c0.156 0 0.282-0.132 0.282-0.294s-0.126-0.294-0.282-0.294c-0.156 0-0.282 0.132-0.282 0.294s0.126 0.294 0.282 0.294z"></path>
<path fill="none" stroke="#f53" style="stroke: var(--color1, #f53)" stroke-linejoin="round" stroke-linecap="round" stroke-miterlimit="4" stroke-width="0.4171" d="M19.298 15.13l5.325-5.803"></path>
<path fill="none" stroke="#f53" style="stroke: var(--color1, #f53)" stroke-linejoin="round" stroke-linecap="round" stroke-miterlimit="4" stroke-width="0.4171" d="M12.515 13.085l4.093 2.476"></path>
<path fill="none" stroke="#f53" style="stroke: var(--color1, #f53)" stroke-linejoin="round" stroke-linecap="round" stroke-miterlimit="4" stroke-width="0.4171" d="M6.339 17.46l3.5-3.937"></path>
<path fill="none" stroke="#f53" style="stroke: var(--color1, #f53)" stroke-linejoin="round" stroke-linecap="round" stroke-miterlimit="4" stroke-width="0.4171" d="M12.304 12.206c0 0.745-0.579 1.348-1.293 1.348s-1.293-0.603-1.293-1.348c0-0.745 0.579-1.348 1.293-1.348s1.293 0.603 1.293 1.348z"></path>
<path fill="none" stroke="#f53" style="stroke: var(--color1, #f53)" stroke-linejoin="round" stroke-linecap="round" stroke-miterlimit="4" stroke-width="0.4171" d="M6.388 18.86c0 0.744-0.579 1.348-1.293 1.348s-1.293-0.603-1.293-1.348c0-0.745 0.579-1.348 1.293-1.348s1.293 0.604 1.293 1.348z"></path>
<path fill="none" stroke="#f53" style="stroke: var(--color1, #f53)" stroke-linejoin="round" stroke-linecap="round" stroke-miterlimit="4" stroke-width="0.4171" d="M19.406 16.435c0 0.745-0.579 1.348-1.293 1.348s-1.293-0.603-1.293-1.348c0-0.745 0.579-1.348 1.293-1.348s1.293 0.603 1.293 1.348z"></path>
<path fill="none" stroke="#f53" style="stroke: var(--color1, #f53)" stroke-linejoin="round" stroke-linecap="round" stroke-miterlimit="4" stroke-width="0.4171" d="M27.162 7.947c0 0.745-0.579 1.348-1.293 1.348s-1.293-0.603-1.293-1.348c0-0.745 0.579-1.348 1.293-1.348s1.293 0.603 1.293 1.348z"></path>
<path fill="none" stroke="#f53" style="stroke: var(--color1, #f53)" stroke-linejoin="round" stroke-linecap="round" stroke-miterlimit="4" stroke-width="0.4171" d="M25.119 24.737c0.452 1.694 2.136 2.685 3.761 2.214s2.576-2.227 2.124-3.921c-0.452-1.694-2.136-2.685-3.761-2.214s-2.576 2.227-2.124 3.92z"></path>
<path fill="none" stroke="#f53" style="stroke: var(--color1, #f53)" stroke-linejoin="round" stroke-linecap="round" stroke-miterlimit="4" stroke-width="0.4171" d="M24.186 27.748c-0.037-0.039-0.071-0.080-0.107-0.12-0.024-0.027-0.049-0.056-0.072-0.084-0.031-0.037-0.061-0.075-0.091-0.114-0.026-0.033-0.053-0.067-0.079-0.101-0.025-0.034-0.050-0.069-0.075-0.103-0.028-0.040-0.056-0.079-0.085-0.119-0.021-0.030-0.040-0.062-0.061-0.093-0.029-0.045-0.059-0.091-0.087-0.137-0.017-0.027-0.033-0.056-0.049-0.084-0.015-0.025-0.030-0.050-0.044-0.076l-1.431 0.197c-0.311 0.043-0.605-0.16-0.69-0.475l-0.296-1.109c-0.085-0.315 0.068-0.648 0.355-0.778l1.323-0.602c0-0.029 0-0.060 0-0.089 0-0.033 0-0.066 0-0.098 0.001-0.055 0.004-0.11 0.007-0.165 0.002-0.037 0.004-0.074 0.006-0.112 0.004-0.050 0.008-0.099 0.013-0.148 0.004-0.043 0.008-0.086 0.013-0.128s0.011-0.086 0.017-0.129c0.007-0.049 0.013-0.097 0.022-0.146 0.007-0.037 0.013-0.073 0.020-0.111 0.010-0.054 0.020-0.108 0.032-0.161 0.007-0.032 0.015-0.065 0.023-0.096 0.007-0.028 0.013-0.058 0.020-0.086l-1.146-0.916c-0.249-0.199-0.32-0.559-0.165-0.844l0.543-1.002c0.154-0.285 0.487-0.409 0.779-0.289l1.344 0.55c0.020-0.022 0.040-0.042 0.061-0.063 0.023-0.024 0.044-0.046 0.067-0.070 0.038-0.038 0.077-0.075 0.116-0.112 0.026-0.025 0.054-0.051 0.081-0.075 0.036-0.032 0.072-0.064 0.109-0.095 0.032-0.027 0.064-0.055 0.097-0.082s0.066-0.053 0.1-0.078c0.038-0.029 0.076-0.059 0.115-0.087 0.029-0.022 0.059-0.042 0.089-0.064 0.043-0.030 0.086-0.061 0.132-0.090 0.027-0.018 0.055-0.034 0.082-0.052 0.024-0.016 0.048-0.031 0.072-0.046l-0.189-1.492c-0.041-0.324 0.153-0.631 0.456-0.719l1.064-0.309c0.303-0.088 0.621 0.071 0.746 0.37l0.578 1.379c0.028 0 0.056 0 0.085 0 0.032 0 0.064 0 0.096 0 0.053 0.001 0.104 0.004 0.157 0.007 0.036 0.002 0.072 0.004 0.108 0.006 0.047 0.004 0.094 0.009 0.141 0.013 0.041 0.004 0.083 0.008 0.124 0.014 0.041 0.005 0.083 0.012 0.123 0.018 0.047 0.007 0.094 0.014 0.14 0.023 0.036 0.007 0.070 0.014 0.106 0.021 0.052 0.011 0.103 0.021 0.154 0.033 0.031 0.007 0.061 0.016 0.092 0.023 0.028 0.007 0.055 0.014 0.084 0.021l0.879-1.194c0.191-0.26 0.537-0.333 0.81-0.172l0.961 0.566c0.274 0.161 0.392 0.507 0.277 0.812l-0.527 1.401c0.021 0.021 0.039 0.042 0.060 0.063 0.023 0.023 0.045 0.047 0.067 0.071 0.037 0.039 0.071 0.080 0.106 0.121 0.025 0.027 0.049 0.056 0.072 0.084 0.031 0.037 0.061 0.075 0.091 0.114 0.026 0.033 0.053 0.067 0.078 0.101s0.051 0.070 0.075 0.104c0.028 0.039 0.056 0.078 0.084 0.12 0.021 0.031 0.040 0.063 0.061 0.093 0.029 0.045 0.058 0.090 0.086 0.137 0.017 0.028 0.033 0.057 0.050 0.084 0.015 0.025 0.030 0.050 0.044 0.075l1.431-0.197c0.311-0.043 0.605 0.16 0.69 0.475l0.296 1.109c0.085 0.315-0.068 0.648-0.355 0.778l-1.323 0.602c0 0.029 0 0.059 0 0.088 0 0.033 0 0.067 0 0.1-0.001 0.055-0.004 0.109-0.006 0.164-0.002 0.037-0.004 0.075-0.006 0.113-0.004 0.049-0.009 0.098-0.012 0.147-0.004 0.043-0.008 0.086-0.013 0.129s-0.011 0.086-0.017 0.128c-0.006 0.049-0.013 0.098-0.022 0.146-0.006 0.037-0.013 0.074-0.021 0.111-0.010 0.054-0.020 0.107-0.032 0.161-0.007 0.032-0.015 0.065-0.023 0.097-0.006 0.028-0.013 0.058-0.020 0.086l1.146 0.916c0.249 0.199 0.32 0.559 0.166 0.844l-0.543 1.002c-0.154 0.285-0.487 0.409-0.779 0.289l-1.344-0.55c-0.020 0.022-0.041 0.041-0.060 0.063-0.022 0.023-0.045 0.047-0.067 0.070-0.038 0.038-0.077 0.074-0.116 0.111-0.027 0.025-0.054 0.051-0.081 0.075-0.036 0.032-0.072 0.064-0.109 0.095-0.032 0.027-0.064 0.055-0.097 0.082s-0.066 0.053-0.1 0.078c-0.038 0.029-0.076 0.059-0.114 0.087-0.029 0.022-0.059 0.042-0.089 0.064-0.043 0.030-0.086 0.061-0.132 0.090-0.027 0.018-0.054 0.034-0.082 0.052-0.024 0.016-0.048 0.031-0.072 0.046l0.189 1.492c0.041 0.324-0.153 0.631-0.456 0.719l-1.064 0.309c-0.303 0.088-0.621-0.070-0.746-0.37l-0.578-1.379c-0.028 0-0.056 0-0.085 0-0.032 0-0.064 0-0.096 0-0.053-0.001-0.104-0.004-0.157-0.007-0.036-0.002-0.072-0.004-0.108-0.006-0.047-0.004-0.094-0.009-0.141-0.014-0.041-0.004-0.083-0.008-0.124-0.014s-0.083-0.012-0.123-0.018c-0.047-0.007-0.093-0.014-0.14-0.023-0.036-0.007-0.071-0.014-0.106-0.022-0.052-0.011-0.102-0.021-0.154-0.033-0.031-0.007-0.062-0.016-0.092-0.023-0.027-0.007-0.055-0.014-0.083-0.021l-0.879 1.194c-0.191 0.26-0.537 0.333-0.81 0.172l-0.961-0.566c-0.273-0.161-0.392-0.507-0.277-0.812l0.527-1.401c-0.021-0.021-0.039-0.042-0.060-0.063-0.023-0.024-0.045-0.047-0.067-0.071l0.002 0.003z"></path>
</symbol>
<symbol id="icon-third" viewBox="0 0 32 32">
<path fill="none" stroke="#f53" style="stroke: var(--color1, #f53)" stroke-linejoin="round" stroke-linecap="round" stroke-miterlimit="10" stroke-width="0.4525" d="M12.944 19.256l-8.681 8.681c2.222 2.222 5.291 3.596 8.681 3.596 6.78 0 12.276-5.496 12.276-12.276h-12.276z"></path>
<path fill="none" stroke="#f53" style="stroke: var(--color1, #f53)" stroke-linejoin="round" stroke-linecap="round" stroke-miterlimit="10" stroke-width="0.4525" d="M26.409 12.313c-1.851-4.413-6.206-7.515-11.287-7.531l-0-0v12.276h12.238c0-0.855-0.087-1.689-0.254-2.495"></path>
<path fill="none" stroke="#f53" style="stroke: var(--color1, #f53)" stroke-linejoin="round" stroke-linecap="round" stroke-miterlimit="10" stroke-width="0.4525" d="M12.977 6.961c-6.78 0-12.276 5.496-12.276 12.276 0 3.39 1.374 6.459 3.596 8.681l8.681-8.681v-12.276z"></path>
<path fill="none" stroke="#f53" style="stroke: var(--color1, #f53)" stroke-linejoin="round" stroke-linecap="round" stroke-miterlimit="10" stroke-width="0.4525" d="M8.221 7.926l4.567 4.567"></path>
<path fill="none" stroke="#f53" style="stroke: var(--color1, #f53)" stroke-linejoin="round" stroke-linecap="round" stroke-miterlimit="10" stroke-width="0.4525" d="M5.245 9.824l7.498 7.498"></path>
<path fill="none" stroke="#f53" style="stroke: var(--color1, #f53)" stroke-linejoin="round" stroke-linecap="round" stroke-miterlimit="10" stroke-width="0.4525" d="M3.171 12.626l8.125 8.125"></path>
<path fill="none" stroke="#f53" style="stroke: var(--color1, #f53)" stroke-linejoin="round" stroke-linecap="round" stroke-miterlimit="10" stroke-width="0.4525" d="M1.302 15.634l7.658 7.658"></path>
<path fill="none" stroke="#f53" style="stroke: var(--color1, #f53)" stroke-linejoin="round" stroke-linecap="round" stroke-miterlimit="10" stroke-width="0.4525" d="M0.788 19.994l5.632 5.632"></path>
<path fill="none" stroke="#f53" style="stroke: var(--color1, #f53)" stroke-linejoin="round" stroke-linecap="round" stroke-miterlimit="10" stroke-width="0.4525" d="M31.763 29.251c0 1.26-1.021 2.281-2.281 2.281s-2.281-1.021-2.281-2.281c0-1.26 1.021-2.281 2.281-2.281s2.281 1.021 2.281 2.281z"></path>
<path fill="none" stroke="#f53" style="stroke: var(--color1, #f53)" stroke-linejoin="round" stroke-linecap="round" stroke-miterlimit="10" stroke-width="0.4525" d="M29.919 2.751c0 1.26-1.021 2.281-2.281 2.281s-2.281-1.021-2.281-2.281 1.021-2.281 2.281-2.281c1.26 0 2.281 1.021 2.281 2.281z"></path>
<path fill="none" stroke="#f53" style="stroke: var(--color1, #f53)" stroke-linejoin="round" stroke-linecap="round" stroke-miterlimit="10" stroke-width="0.4525" d="M7.669 2.751c0 1.26-1.021 2.281-2.281 2.281s-2.281-1.021-2.281-2.281c0-1.26 1.021-2.281 2.281-2.281s2.281 1.021 2.281 2.281z"></path>
<path fill="none" stroke="#f53" style="stroke: var(--color1, #f53)" stroke-linejoin="round" stroke-linecap="round" stroke-miterlimit="10" stroke-width="0.4525" d="M29.356 24.814v-2.688h-4.375"></path>
<path fill="none" stroke="#f53" style="stroke: var(--color1, #f53)" stroke-linejoin="round" stroke-linecap="round" stroke-miterlimit="10" stroke-width="0.4525" d="M5.388 7.064v2.375"></path>
<path fill="none" stroke="#f53" style="stroke: var(--color1, #f53)" stroke-linejoin="round" stroke-linecap="round" stroke-miterlimit="10" stroke-width="0.4525" d="M20.856 6.189v-3.438h2.25"></path>
</symbol>
<symbol id="icon-four" viewBox="0 0 38 32">
<path fill="#f53" style="fill: var(--color1, #f53)" d="M7.407 22.138h-5.198c-0.287 0-0.519 0.194-0.519 0.432v8.997c0 0.239 0.232 0.432 0.519 0.432h5.198c0.287 0 0.519-0.194 0.519-0.432v-8.997c0-0.239-0.232-0.432-0.519-0.432zM6.888 31.135h-4.16v-8.132h4.16v8.132zM17.023 13.721h-5.198c-0.287 0-0.519 0.194-0.519 0.432v17.21c0 0.239 0.232 0.432 0.519 0.432h5.198c0.287 0 0.519-0.194 0.519-0.432v-17.21c0-0.239-0.232-0.432-0.519-0.432zM16.504 30.931h-4.16v-16.345h4.16v16.345zM26.639 16.584h-5.198c-0.287 0-0.519 0.194-0.519 0.432v14.142c0 0.239 0.232 0.432 0.519 0.432h5.198c0.287 0 0.519-0.194 0.519-0.432v-14.142c0-0.239-0.232-0.432-0.519-0.432zM26.12 30.726h-4.16v-13.278h4.16v13.278zM36.256 8.609h-5.198c-0.287 0-0.519 0.194-0.519 0.432v21.913c0 0.239 0.232 0.432 0.519 0.432h5.198c0.286 0 0.519-0.194 0.519-0.432v-21.913c0-0.239-0.232-0.432-0.519-0.432zM35.737 30.522h-4.16v-21.048h4.16v21.048zM23.975 12.598c1.719 0 3.118-1.166 3.118-2.598 0-0.574-0.227-1.104-0.607-1.534l5.16-3.84c0.534 0.357 1.21 0.571 1.946 0.571 1.719 0 3.118-1.166 3.118-2.598s-1.399-2.598-3.118-2.598c-1.719 0-3.118 1.166-3.118 2.598 0 0.508 0.178 0.981 0.482 1.381l-5.215 3.881c-0.503-0.289-1.11-0.459-1.766-0.459-1.136 0-2.129 0.511-2.674 1.27l-3.874-1.253c0.031-0.147 0.050-0.297 0.050-0.451 0-1.433-1.399-2.598-3.118-2.598s-3.118 1.166-3.118 2.598c0 0.55 0.208 1.060 0.56 1.481l-5.362 4.373c-0.489-0.265-1.071-0.421-1.696-0.421-1.719 0-3.118 1.166-3.118 2.598s1.399 2.598 3.118 2.598 3.118-1.166 3.118-2.598c0-0.599-0.247-1.15-0.658-1.59l5.325-4.343c0.515 0.313 1.147 0.5 1.831 0.5 1.168 0 2.186-0.538 2.72-1.332l3.842 1.243c-0.042 0.169-0.064 0.344-0.064 0.524-0 1.432 1.399 2.598 3.118 2.598zM4.742 16.731c-1.147 0-2.080-0.778-2.080-1.733s0.933-1.733 2.080-1.733c1.147 0 2.080 0.778 2.080 1.733s-0.933 1.733-2.080 1.733zM14.359 8.7c-1.147 0-2.080-0.778-2.080-1.734s0.933-1.733 2.080-1.733c1.147 0 2.080 0.778 2.080 1.733s-0.933 1.734-2.080 1.734zM33.592 0.865c1.147 0 2.080 0.778 2.080 1.733s-0.933 1.733-2.080 1.733c-1.147 0-2.080-0.778-2.080-1.734s0.933-1.733 2.080-1.733zM23.975 8.266c1.147 0 2.080 0.778 2.080 1.734s-0.933 1.733-2.080 1.733-2.080-0.778-2.080-1.733c-0-0.956 0.933-1.734 2.080-1.734z"></path>
</symbol>
<symbol id="icon-arrow" viewBox="0 0 31 32">
<path fill="none" stroke="#e5e5e5" style="stroke: var(--color1, #e5e5e5)" stroke-linejoin="miter" stroke-linecap="round" stroke-miterlimit="4" stroke-width="0.5464" d="M8.958 3.421c11.649 1.946 16.943 13.377 14.997 24.203"></path>
<path fill="none" stroke="#e5e5e5" style="stroke: var(--color1, #e5e5e5)" stroke-linejoin="miter" stroke-linecap="round" stroke-miterlimit="4" stroke-width="0.5464" d="M21.857 20.262c1.436 2.414 1.834 4.656 1.968 7.431 0.107 2.23 1.857-4.463 3.142-5.975"></path>
</symbol>
</defs>
</svg>
